<svg width="13" height="24" viewBox="0 0 13 24" fill="none" xmlns="http://www.w3.org/2000/svg">
<path fill-rule="evenodd" clip-rule="evenodd" d="M12.3481 0.160627L9.27036 0.156006C5.81299 0.156006 3.57803 2.44447 3.57803 5.98575V8.67406H0.483285C0.216953 8.67406 0 8.88938 0 9.15646V13.0517C0 13.3175 0.216953 13.5341 0.483285 13.5341H3.57803V23.3616C3.57803 23.6275 3.79499 23.844 4.06255 23.844H8.09857C8.36613 23.844 8.58309 23.6275 8.58309 23.3616V13.5341H12.2009C12.4685 13.5341 12.6845 13.3175 12.6845 13.0517L12.6867 9.15646C12.6867 9.02893 12.6348 8.90632 12.5444 8.81484C12.454 8.72458 12.3312 8.67406 12.2022 8.67406H8.58309V6.39514C8.58309 5.30005 8.84479 4.74402 10.2733 4.74402L12.3469 4.74279C12.6145 4.74279 12.8302 4.52624 12.8302 4.26039V0.644565C12.8302 0.377182 12.6145 0.161859 12.3481 0.160627Z" fill="#4267B2"/>
</svg>
