<svg width="26" height="22" viewBox="0 0 26 22" fill="none" xmlns="http://www.w3.org/2000/svg">
<path fill-rule="evenodd" clip-rule="evenodd" d="M25.9904 3.15643C25.0385 3.56748 24.0075 3.85205 22.9297 3.97655C24.0318 3.33429 24.8721 2.31655 25.276 1.10316C24.2449 1.698 23.1043 2.13078 21.8825 2.362C20.9164 1.35809 19.5281 0.725708 17.9978 0.725708C15.0569 0.725708 12.67 3.04972 12.67 5.91323C12.67 6.3223 12.7187 6.71556 12.806 7.09499C8.37333 6.87761 4.45008 4.81644 1.81767 1.67428C1.35694 2.43907 1.09512 3.33429 1.09512 4.28484C1.09512 6.08318 2.03889 7.67402 3.46572 8.59888C2.59298 8.57714 1.77707 8.33802 1.05656 7.95068V8.01392C1.05656 10.5296 2.89539 12.6283 5.3289 13.1086C4.88442 13.2232 4.40949 13.2844 3.92644 13.2844C3.58546 13.2844 3.25261 13.2548 2.91975 13.1935C3.6017 15.2547 5.56637 16.7507 7.8984 16.7981C6.07377 18.1874 3.77422 19.0134 1.27779 19.0134C0.849539 19.0134 0.429408 18.9897 0.00927734 18.9443C2.37175 20.4185 5.17059 21.2742 8.18255 21.2742C17.9815 21.2742 23.3418 13.3694 23.3418 6.51596L23.3255 5.84406C24.3728 5.11089 25.276 4.19986 25.9904 3.15643Z" fill="#1DA1F2"/>
</svg>
