<svg width="30" height="18" viewBox="0 0 30 18" fill="none" xmlns="http://www.w3.org/2000/svg">
<path fill-rule="evenodd" clip-rule="evenodd" d="M27.9962 14.0272C27.1515 13.0034 26.1592 12.1307 25.2201 11.2042C24.3724 10.3675 24.3177 9.88309 25.0006 8.91759C25.7433 7.86486 26.5436 6.8526 27.2936 5.80432C27.9933 4.82398 28.7103 3.84698 29.0789 2.67361C29.3127 1.92861 29.106 1.59787 28.349 1.46721C28.2183 1.44419 28.0836 1.44419 27.9504 1.44419L23.4605 1.43825C22.9069 1.42972 22.6015 1.67322 22.4062 2.16915C22.1411 2.83917 21.8698 3.50882 21.5545 4.15582C20.8419 5.62021 20.0445 7.0382 18.9274 8.23755C18.6807 8.50147 18.4083 8.8363 17.9967 8.69858C17.4802 8.50853 17.3297 7.65031 17.337 7.36003L17.3326 2.11978C17.2339 1.37181 17.0687 1.03661 16.3344 0.891846L11.6695 0.892959C11.0472 0.892959 10.7345 1.13535 10.4019 1.52957C10.2099 1.75749 10.1526 1.90523 10.5469 1.98058C11.3211 2.12869 11.7572 2.63464 11.8733 3.42047C12.0583 4.67476 12.0454 5.9335 11.9393 7.19187C11.9078 7.56011 11.8446 7.92723 11.6996 8.26947C11.4746 8.81031 11.1104 8.91908 10.6328 8.58685C10.1996 8.28655 9.89413 7.86338 9.5975 7.43687C8.4789 5.83922 7.58534 4.11499 6.85845 2.3039C6.64773 1.7805 6.28465 1.46312 5.73691 1.4557C4.38886 1.43417 3.04228 1.42972 1.69423 1.4557C0.884009 1.47166 0.643181 1.86885 0.973218 2.61274C2.44021 5.91309 4.07351 9.12175 6.20462 12.0438C7.30009 13.5446 8.55636 14.8683 10.1797 15.8063C12.0194 16.8706 14 17.1898 16.0866 17.0911C17.0632 17.0447 17.3572 16.7882 17.4016 15.8034C17.4332 15.1308 17.5077 14.4607 17.8374 13.8561C18.1586 13.2618 18.6476 13.1485 19.2112 13.5183C19.4924 13.7039 19.7288 13.9388 19.9542 14.1868C20.5034 14.7959 21.0339 15.4222 21.6048 16.0094C22.3203 16.7462 23.1679 17.1809 24.2333 17.0926H28.3619C29.026 17.0491 29.3715 16.2239 28.99 15.4745C28.722 14.9481 28.3692 14.4797 27.9962 14.0272Z" fill="#5B88BD"/>
</svg>
